<?xml version="1.0" standalone="no"?>
<!DOCTYPE svg PUBLIC "-//W3C//DTD SVG 20010904//EN"
 "http://www.w3.org/TR/2001/REC-SVG-20010904/DTD/svg10.dtd">
<svg version="1.0" xmlns="http://www.w3.org/2000/svg"
 width="496.000000pt" height="201.000000pt" viewBox="0 0 496.000000 201.000000"
 preserveAspectRatio="xMidYMid meet">

<g transform="translate(0.000000,201.000000) scale(0.100000,-0.100000)"
fill="#000000" stroke="none">
<path d="M1732 1518 c-144 -205 -353 -503 -465 -663 l-204 -290 44 -3 c37 -3
44 -6 38 -20 -28 -69 -37 -108 -32 -148 13 -119 131 -133 245 -30 47 43 72 47
72 11 0 -38 45 -75 90 -75 39 0 103 39 135 82 l17 23 -7 -23 c-9 -30 13 -82
34 -82 9 0 43 33 76 72 l60 72 5 -46 c6 -48 23 -78 45 -78 7 0 31 21 54 46
l40 45 3 -38 c2 -29 9 -41 30 -53 19 -10 32 -12 42 -5 8 6 29 21 47 35 l34 25
-18 -25 c-107 -150 -128 -204 -100 -253 40 -68 86 -34 142 103 37 91 39 95 67
92 33 -3 148 39 176 65 19 17 20 17 33 -2 24 -35 48 -55 64 -55 9 0 40 21 69
46 42 37 52 42 52 26 0 -25 37 -72 56 -72 8 0 43 23 77 52 l62 51 6 -36 c7
-42 25 -67 48 -67 24 0 41 20 42 49 0 24 1 25 12 7 25 -40 48 -56 80 -56 38 0
156 55 164 76 9 24 23 15 23 -14 0 -18 10 -38 25 -52 24 -22 29 -23 69 -12 33
8 51 8 75 -1 28 -10 38 -8 93 20 35 17 89 52 121 78 48 38 58 51 55 73 -4 36
-29 39 -66 7 l-30 -25 -12 49 c-21 89 -67 105 -105 36 -23 -40 -93 -104 -83
-75 3 8 -3 36 -12 62 l-18 47 49 10 c108 23 213 99 261 188 33 60 53 158 45
222 -12 100 -85 204 -177 251 l-41 21 46 41 c140 123 133 348 -15 481 -104 94
-189 108 -615 105 l-320 -3 -3 -663 -2 -662 59 0 c78 0 82 -15 20 -76 -46 -45
-50 -47 -44 -21 8 32 -16 77 -43 77 -10 0 -34 -11 -55 -25 l-37 -26 -9 24
c-17 44 -68 49 -124 12 -21 -15 -37 -21 -37 -14 0 7 -7 21 -17 31 -15 17 -13
18 60 18 l77 0 0 665 0 665 -193 0 -193 0 -262 -372z m1429 62 c27 -15 49 -62
49 -106 0 -28 -8 -44 -34 -70 l-34 -34 -121 0 -121 0 0 110 0 110 121 0 c66 0
129 -5 140 -10z m-1144 -587 c-3 -2 -57 -2 -121 -1 l-116 3 100 150 c55 83
100 153 100 156 0 4 8 24 18 45 17 39 17 39 20 -155 1 -107 1 -196 -1 -198z
m1195 96 c57 -26 81 -103 52 -164 -29 -61 -76 -76 -231 -73 l-128 3 -3 123 -3
122 145 0 c82 0 155 -5 168 -11z m-1739 -297 c14 -15 15 -25 6 -58 -14 -50
-87 -164 -105 -164 -31 0 -26 31 11 67 38 37 80 116 71 132 -13 20 -60 -6
-111 -61 -78 -83 -148 -224 -149 -298 -1 -53 0 -55 24 -52 32 3 109 57 183
127 32 30 63 55 68 55 13 0 11 -24 -3 -38 -18 -18 1 -14 36 7 63 38 136 35
136 -7 0 -9 4 -23 9 -31 8 -12 16 -10 48 12 47 32 73 34 80 7 5 -20 6 -20 37
3 65 50 92 43 98 -26 l3 -39 48 38 c60 47 80 40 85 -30 3 -52 17 -56 42 -13 8
15 30 38 49 51 18 14 40 34 48 45 29 42 62 10 49 -45 -6 -22 -3 -21 46 16 54
40 94 50 116 28 17 -17 15 -38 -7 -80 l-18 -37 23 16 c13 8 24 21 24 27 0 19
89 79 106 72 27 -10 27 -37 1 -89 -15 -28 -25 -53 -22 -55 5 -6 80 56 129 108
43 45 55 48 80 21 14 -15 15 -23 5 -47 -24 -62 -28 -83 -14 -78 8 3 18 18 23
32 6 15 36 54 67 87 63 67 90 103 82 111 -6 7 -179 -35 -193 -47 -14 -11 -24
-1 -24 23 0 23 21 32 147 62 91 22 106 29 134 60 38 44 49 45 49 6 0 -34 1
-34 53 -19 48 13 61 5 42 -25 -12 -18 -28 -25 -68 -29 -28 -4 -54 -12 -56 -18
-2 -7 -19 -29 -38 -50 -26 -28 -36 -52 -45 -99 -8 -45 -7 -65 1 -73 14 -14 14
-64 0 -73 -25 -15 -44 25 -43 92 1 62 1 64 -17 48 -11 -10 -19 -24 -19 -34 0
-9 -12 -26 -27 -38 -102 -81 -92 -76 -114 -56 -17 16 -20 28 -16 67 l4 49 -66
-66 c-37 -36 -74 -66 -84 -66 -23 0 -50 45 -45 74 l5 25 -44 -30 c-50 -35
-146 -79 -170 -79 -9 0 -24 7 -32 15 -15 13 -21 3 -60 -95 -38 -96 -72 -150
-94 -150 -4 0 -14 11 -22 24 -23 34 -9 79 55 172 41 60 90 164 90 191 0 9 -37
-33 -43 -48 -3 -9 -26 -34 -52 -55 -36 -29 -50 -36 -63 -28 -20 13 -34 61 -27
92 5 22 4 22 -13 10 -10 -7 -35 -32 -56 -56 -49 -54 -64 -44 -68 41 l-3 62
-63 -65 c-34 -36 -65 -73 -68 -82 -8 -26 -33 -22 -40 7 -5 19 1 36 21 65 33
47 29 59 -8 29 -15 -11 -31 -17 -37 -14 -5 3 -10 -1 -10 -9 0 -24 -62 -79
-104 -95 -35 -12 -41 -11 -65 7 -21 16 -26 27 -26 65 0 37 -3 44 -15 37 -8 -4
-21 -5 -27 -3 -7 3 -32 -14 -55 -36 -46 -44 -88 -68 -137 -77 -25 -5 -36 -1
-62 25 -30 31 -31 35 -26 91 4 43 16 80 49 141 23 45 49 84 56 86 6 3 12 11
12 18 0 18 88 94 135 116 50 23 68 24 88 1z m547 -142 l0 -90 90 0 90 0 -18
-21 c-9 -12 -37 -36 -61 -55 l-44 -34 -16 33 c-20 41 -47 44 -94 13 l-37 -25
0 23 c0 12 -9 31 -20 41 -23 21 -55 15 -90 -15 -21 -18 -25 -19 -32 -5 -12 20
-36 19 -82 -6 -21 -11 -39 -19 -40 -17 -13 29 -28 45 -50 56 -23 12 -34 12
-71 -1 -65 -21 -65 -1 1 104 l57 89 208 0 209 0 0 -90z m-604 -129 c-22 -20
-47 -41 -54 -48 -70 -66 -146 -112 -156 -94 -7 10 17 97 39 143 l18 37 97 -1
97 0 -41 -37z m1380 0 l-39 -40 -31 32 c-37 38 -29 45 54 46 l54 1 -38 -39z
m399 3 c-38 -34 -40 -34 -43 -14 -8 47 -108 49 -163 3 -16 -14 -41 -48 -55
-76 -18 -34 -29 -46 -36 -39 -15 15 1 107 24 137 19 25 21 25 166 25 l147 -1
-40 -35z m303 -14 c7 -25 11 -57 8 -72 -3 -16 -3 -28 0 -28 3 0 26 16 50 37
27 22 48 33 54 27 12 -12 5 -21 -55 -69 -61 -49 -145 -95 -174 -95 -11 0 -26
9 -33 19 -12 19 -12 19 -39 0 -33 -23 -62 -24 -83 -3 -23 22 -20 62 9 117 14
26 23 47 20 47 -18 0 -45 -24 -63 -54 -28 -48 -120 -107 -175 -113 -40 -5 -46
-3 -66 26 l-23 32 20 42 c29 60 72 98 121 104 43 6 74 -9 65 -31 -3 -8 -31
-31 -62 -52 -77 -53 -92 -66 -92 -82 0 -11 8 -13 32 -8 40 8 108 52 108 69 0
19 139 129 157 125 9 -2 22 -19 29 -40 12 -34 11 -39 -22 -89 -19 -29 -34 -57
-34 -61 0 -14 24 -9 57 11 22 14 30 25 26 39 -3 13 4 24 24 37 34 22 60 51 80
88 20 40 44 31 61 -23z m-423 -105 c-39 -32 -58 -32 -22 0 15 14 33 25 40 25
7 0 -1 -11 -18 -25z m235 1 c0 -8 -7 -16 -15 -20 -13 -4 -14 -2 -5 14 13 23
20 26 20 6z"/>
<path d="M1583 483 c-36 -7 -83 -68 -83 -108 0 -46 26 -47 69 -3 36 37 47 64
32 82 -7 9 -7 16 1 24 7 7 10 11 8 11 -3 -1 -15 -4 -27 -6z m-3 -72 c-10 -20
-48 -51 -61 -51 -14 0 5 46 29 73 22 23 27 25 34 12 5 -8 4 -23 -2 -34z"/>
<path d="M2288 460 c-37 -25 -78 -68 -78 -82 0 -2 16 -3 35 -2 23 1 45 10 61
25 43 40 62 89 34 89 -4 0 -27 -14 -52 -30z m17 -34 c-18 -23 -32 -33 -42 -29
-13 5 -10 12 16 35 43 39 58 35 26 -6z"/>
<path d="M2083 233 c-24 -46 -38 -97 -24 -89 11 7 54 117 48 123 -3 2 -13 -13
-24 -34z"/>
<path d="M3044 486 c-17 -8 -34 -21 -37 -30 -10 -25 9 -19 45 14 37 33 36 35
-8 16z"/>
<path d="M3427 470 c-9 -11 -17 -29 -17 -39 0 -10 -7 -24 -15 -31 -18 -15 -4
-36 18 -27 27 10 63 117 39 117 -4 0 -15 -9 -25 -20z"/>
</g>
</svg>
