<!--version="1.0" standalone="no"--><!DOCTYPE html PUBLIC "-//W3C//DTD SVG 20010904//EN" "http://www.w3.org/TR/2001/REC-SVG-20010904/DTD/svg10.dtd"><svg version="1.0" xmlns="http://www.w3.org/2000/svg" width="2133.333" height="1817.333" viewBox="0 0 1600 1363" preserveAspectRatio="xMidYMid meet" zoomAndPan="magnify" contentScriptType="text/ecmascript" contentStyleType="text/css"><g transform="translate(0.000000,1363.000000) scale(0.100000,-0.100000)" fill="#000000" stroke="none"><path d="M0 6815V0h16000v13630H0V6815zm7470 705V4070H6150v890l-767-2-767-3-64-140c-168-367-271-612-294-697l-12-48h-798c-439 0-798 4-798 8 0 5 97 204 216 443s281 565 359 724c79 160 236 479 350 710s292 591 395 800c189 383 437 886 832 1685 119 239 363 732 543 1095s411 829 512 1035c102 206 190 381 195 388 8 9 163 12 714 12h704V7520zm2750 3424c211-13 349-28 483-55 337-68 514-171 723-422 309-369 475-851 476-1382 0-303-55-590-163-837-55-129-127-243-256-410-62-80-113-149-113-152s44-38 98-78c118-87 186-150 262-243 190-233 327-531 401-875 72-335 41-803-81-1230-137-481-501-920-907-1095-43-19-118-47-168-62l-90-28-1434-3-1434-2 7 2482c3 1366 9 2912 13 3436l6 952h51c306 1 1112 14 1116 18 6 5 892-6 1010-14zM2842 3861c4-3 31-105 61-226l54-220 54 225 55 225 92 3c68 2 93-1 97-10 2-7 9-121 15-253 5-132 13-282 16-332l7-93h-66c-47 0-66 4-70 14-3 8-9 115-13 237-4 125-11 215-15 204s-31-118-59-237l-52-218h-125l-38 158c-20 86-45 189-55 227l-17 70-6-45c-4-25-10-126-14-225l-8-180-69-3-68-3 6 63c3 35 10 173 16 308 13 301 15 318 43 322 31 5 151-3 159-11zm1211-63c9-40 48-192 87-338 38-146 70-268 70-272 0-5-34-8-75-8-65 0-75 2-75 18 0 9-5 33-10 53l-10 36-78 7c-43 4-85 4-94 1-11-4-21-27-28-61l-11-54h-147l10 38c5 20 47 173 94 339 46 165 84 304 84 307s38 6 83 6h84l16-72zm912 41c73-37 109-99 113-196 5-86-13-141-61-190l-31-33 43-102c66-158 68-149-20-146l-74 3-40 107-40 108h-85v-221l-67 3-68 3-3 348-2 348 143-3c130-3 147-5 192-29zm675-122 5-148 85 147 85 148 70-3c38-1 71-4 73-6s-36-68-84-147c-48-78-87-147-87-153 0-5 37-84 82-175 117-236 115-210 23-210l-77 1-59 125-60 125-28-46c-25-39-28-55-28-125v-80h-64c-53 0-64 3-68 18-8 29-10 661-3 672 4 6 33 10 68 8l62-3 5-148zm1048 76 3-73h-251v-120h78c122 0 122 0 122-81v-69h-200v-130h248l7-55c12-100 22-95-201-95h-194v343c0 189 3 347 7 351 4 3 90 5 192 4l186-3 3-72zm789 1c-2-36-8-68-12-72s-39-7-78-7h-72l-3-270c-1-148-6-273-10-277-5-5-34-6-65-2l-57 7-2 271-3 271-77 3-78 3v139h463l-6-66zm813 56c93-26 160-127 160-242 0-154-89-238-255-238h-44l-3-102-3-103h-130l-3 348-2 347h122c68 0 139-4 158-10zm585-107c4-65 5-164 2-219-3-56-3-127 0-158l6-56h218l-3-72-3-73-155-3c-85-1-165 0-177 3l-23 5v690h128l7-117zm890 111c16-4 25-27 47-117 15-62 55-215 88-342 33-126 60-231 60-232 0-2-33-3-74-3h-73l-13 60-13 60h-187l-6-27c-22-97-12-88-92-91-40-2-72 1-72 6 0 7 107 393 187 675 4 14 17 17 67 17 33 0 70-3 81-6zm890-29c53-33 117-108 109-128-3-6-25-28-51-47l-45-34-23 28c-34 42-76 66-118 66-150 0-222-211-119-349 55-74 172-82 242-16l25 24 50-44 50-43-31-38c-47-58-124-94-205-94-36 0-87 8-114 17-63 21-137 95-173 171-24 51-27 69-27 167 0 100 3 116 29 172 32 70 94 134 159 164 66 31 178 23 242-16zm815-45v-70h-251l3-62 3-63 100-5 100-5 3-67 3-68h-201v-65c0-55 3-65 18-66 9-1 64-2 122-3l105-1 3-72 3-73h-391v690h380v-70z"/><path d="M6091 8194c-6-22-24-80-40-129-16-50-33-108-37-130s-27-87-52-145c-41-97-345-757-460-1000-27-58-63-134-80-170-16-36-57-122-90-192l-60-126 72-7c39-4 233-7 431-8l360-2 3 665c1 366-2 799-7 963-9 300-18 363-40 281z"/><path d="M9390 8825v-575h878l82 118c103 147 146 235 161 332 32 208-50 536-157 629-23 21-51 32-100 41-88 15-411 29-666 30h-198v-575z"/><path d="M9385 6553c4-159 10-442 14-630 3-188 8-344 11-347 11-10 240-19 530-19 332-1 411 8 528 63 146 68 239 213 278 435 20 108 14 308-11 400-28 105-92 224-151 281-46 45-62 54-122 68-107 24-337 36-726 36h-358l7-287z"/><path d="M3921 3573c-12-54-25-106-28-115-4-16 3-18 57-18 46 0 61 3 58 13-3 6-15 58-28 115-13 56-26 102-30 102-3 0-16-44-29-97z"/><path d="M4768 3714c-5-4-8-45-8-92v-84l71 4c84 4 109 25 109 87 0 55-33 81-107 88-32 3-61 2-65-3z"/><path d="M8140 3615v-95h56c48 0 59 4 85 29 21 22 29 39 29 66s-8 44-29 66c-26 25-37 29-85 29h-56v-95z"/><path d="M9666 3553c-14-60-26-114-26-120s24-10 55-10c42 0 55 3 55 15 0 21-41 194-50 211-5 9-18-28-34-96z"/></g></svg>
